<svg width="40" height="40" viewBox="0 0 40 40" fill="none" xmlns="http://www.w3.org/2000/svg">
<mask id="mask0_1696_37196" style="mask-type:alpha" maskUnits="userSpaceOnUse" x="0" y="0" width="40" height="40">
<rect width="40" height="40" fill="#D9D9D9"/>
</mask>
<g mask="url(#mask0_1696_37196)">
<path d="M7.0835 31.4421V28.9422H10.4168V16.8588C10.4168 14.596 11.1166 12.5955 12.5162 10.8572C13.9157 9.11899 15.716 8.00414 17.9168 7.51269V6.34603C17.9168 5.75842 18.1171 5.26429 18.5178 4.86365C18.9184 4.46301 19.4125 4.2627 20.0001 4.2627C20.5877 4.2627 21.0818 4.46301 21.4825 4.86365C21.8831 5.26429 22.0834 5.75842 22.0834 6.34603V7.51269C24.2843 8.00414 26.0845 9.11899 27.4841 10.8572C28.8836 12.5955 29.5834 14.596 29.5834 16.8588V28.9422H32.9167V31.4421H7.0835ZM20.0001 36.3459C19.1796 36.3459 18.4724 36.0543 17.8783 35.4709C17.2843 34.8876 16.9873 34.175 16.9873 33.3332H23.0129C23.0129 34.175 22.7212 34.8876 22.1379 35.4709C21.5546 36.0543 20.842 36.3459 20.0001 36.3459ZM12.9167 28.9422H27.0835V16.8588C27.0835 14.8973 26.3933 13.2263 25.013 11.8459C23.6326 10.4656 21.9617 9.77544 20.0001 9.77544C18.0386 9.77544 16.3676 10.4656 14.9873 11.8459C13.6069 13.2263 12.9167 14.8973 12.9167 16.8588V28.9422Z" fill="#004364"/>
</g>
</svg>
