<svg width="40" height="40" viewBox="0 0 40 40" fill="none" xmlns="http://www.w3.org/2000/svg">
<mask id="mask0_1696_37205" style="mask-type:alpha" maskUnits="userSpaceOnUse" x="0" y="0" width="40" height="40">
<rect width="40" height="40" fill="#D9D9D9"/>
</mask>
<g mask="url(#mask0_1696_37205)">
<path d="M23.1731 35.09C22.6935 35.5686 22.0993 35.8079 21.3904 35.8079C20.6815 35.8079 20.0877 35.5686 19.609 35.09L4.94237 20.4233C4.70093 20.1819 4.5113 19.904 4.3735 19.5896C4.23566 19.2752 4.16675 18.9399 4.16675 18.5836V6.66695C4.16675 5.98534 4.41301 5.39828 4.90554 4.90578C5.39804 4.41326 5.9851 4.16699 6.66671 4.16699H18.5834C18.9274 4.16699 19.2569 4.23413 19.5719 4.36841C19.887 4.50266 20.16 4.68338 20.391 4.91058L35.0577 19.6029C35.547 20.0922 35.7943 20.6899 35.7997 21.3961C35.805 22.1023 35.5684 22.6947 35.0898 23.1733L23.1731 35.09ZM21.3839 33.3336L33.3078 21.417L18.5905 6.66695H6.66671V18.5836L21.3839 33.3336ZM10.8315 12.9169C11.4097 12.9169 11.9017 12.7145 12.3077 12.3098C12.7137 11.9051 12.9167 11.4137 12.9167 10.8355C12.9167 10.2573 12.7143 9.76526 12.3096 9.35928C11.9049 8.95331 11.4134 8.75033 10.8352 8.75033C10.2571 8.75033 9.76501 8.95269 9.35904 9.35741C8.95307 9.76213 8.75008 10.2536 8.75008 10.8317C8.75008 11.4099 8.95244 11.902 9.35717 12.308C9.76189 12.7139 10.2533 12.9169 10.8315 12.9169Z" fill="#004364"/>
</g>
</svg>
