<svg width="40" height="40" viewBox="0 0 40 40" fill="none" xmlns="http://www.w3.org/2000/svg">
<mask id="mask0_1696_37199" style="mask-type:alpha" maskUnits="userSpaceOnUse" x="0" y="0" width="40" height="40">
<rect width="40" height="40" fill="#D9D9D9"/>
</mask>
<g mask="url(#mask0_1696_37199)">
<path d="M13.75 29.5836H26.2499V27.0837H13.75V29.5836ZM13.75 22.9169H26.2499V20.417H13.75V22.9169ZM10.5128 35.8336C9.67094 35.8336 8.95833 35.5419 8.375 34.9586C7.79167 34.3752 7.5 33.6626 7.5 32.8207V7.17983C7.5 6.33794 7.79167 5.62533 8.375 5.04199C8.95833 4.45866 9.67094 4.16699 10.5128 4.16699H23.75L32.4999 12.9169V32.8207C32.4999 33.6626 32.2083 34.3752 31.6249 34.9586C31.0416 35.5419 30.329 35.8336 29.4871 35.8336H10.5128ZM22.5 14.1669V6.66695H10.5128C10.3846 6.66695 10.2671 6.72037 10.1602 6.8272C10.0534 6.93406 9.99996 7.0516 9.99996 7.17983V32.8207C9.99996 32.949 10.0534 33.0665 10.1602 33.1734C10.2671 33.2802 10.3846 33.3336 10.5128 33.3336H29.4871C29.6153 33.3336 29.7328 33.2802 29.8397 33.1734C29.9465 33.0665 30 32.949 30 32.8207V14.1669H22.5Z" fill="#004364"/>
</g>
</svg>
