<svg width="40" height="40" viewBox="0 0 40 40" fill="none" xmlns="http://www.w3.org/2000/svg">
<mask id="mask0_1696_37202" style="mask-type:alpha" maskUnits="userSpaceOnUse" x="0" y="0" width="40" height="40">
<rect width="40" height="40" fill="#D9D9D9"/>
</mask>
<g mask="url(#mask0_1696_37202)">
<path d="M17.6734 25.5769C18.2653 26.1687 19.0275 26.4497 19.9602 26.4198C20.8929 26.3899 21.5772 26.0533 22.0131 25.4102L31.058 12.3077L17.9234 21.3205C17.2695 21.7564 16.9164 22.4268 16.8641 23.3317C16.8117 24.2366 17.0815 24.985 17.6734 25.5769ZM20.0003 7.5C21.5858 7.5 23.0713 7.70781 24.457 8.12342C25.8427 8.539 27.1808 9.16774 28.4714 10.0096L26.1221 11.5288C25.1734 11.0246 24.19 10.6437 23.1718 10.3862C22.1536 10.1287 21.0965 9.99996 20.0003 9.99996C16.3058 9.99996 13.16 11.2986 10.5628 13.8958C7.96556 16.493 6.66695 19.6388 6.66695 23.3333C6.66695 24.5 6.82667 25.6527 7.14612 26.7916C7.46556 27.9305 7.91695 29 8.50028 30H31.5003C32.1392 28.9444 32.6045 27.8472 32.8961 26.7083C33.1878 25.5694 33.3336 24.3888 33.3336 23.1666C33.3336 22.1666 33.2102 21.1543 32.9634 20.1298C32.7166 19.1052 32.3358 18.1324 31.8208 17.2115L33.34 14.8622C34.1626 16.2105 34.7796 17.5593 35.191 18.9086C35.6023 20.258 35.8165 21.6602 35.8336 23.1153C35.8507 24.6239 35.6808 26.0496 35.324 27.3926C34.9671 28.7355 34.4297 30.0491 33.7118 31.3333C33.4917 31.6944 33.1819 31.9791 32.7823 32.1874C32.3827 32.3958 31.9554 32.4999 31.5003 32.4999H8.50028C8.05584 32.4999 7.63651 32.3931 7.24228 32.1794C6.84806 31.9657 6.53023 31.6623 6.28878 31.2692C5.65203 30.1581 5.13921 28.9465 4.75033 27.6346C4.36144 26.3226 4.16699 24.8888 4.16699 23.3333C4.16699 21.156 4.58003 19.1091 5.40612 17.1928C6.2322 15.2765 7.35987 13.5981 8.78912 12.1576C10.2184 10.7171 11.8988 9.58067 13.8305 8.74842C15.7621 7.91614 17.8187 7.5 20.0003 7.5Z" fill="#004364"/>
</g>
</svg>
