<svg width="44" height="44" viewBox="0 0 44 44" fill="none" xmlns="http://www.w3.org/2000/svg">
<circle cx="22" cy="22" r="22" fill="#FCD800"/>
<mask id="mask0_2006_26153" style="mask-type:alpha" maskUnits="userSpaceOnUse" x="6" y="6" width="32" height="32">
<rect x="6" y="6" width="32" height="32" fill="#D9D9D9"/>
</mask>
<g mask="url(#mask0_2006_26153)">
<path d="M27.3307 24.0003C27.9085 24.0003 28.3863 23.8114 28.764 23.4336C29.1418 23.0558 29.3307 22.5781 29.3307 22.0003C29.3307 21.4225 29.1418 20.9447 28.764 20.567C28.3863 20.1892 27.9085 20.0003 27.3307 20.0003C26.7529 20.0003 26.2751 20.1892 25.8974 20.567C25.5196 20.9447 25.3307 21.4225 25.3307 22.0003C25.3307 22.5781 25.5196 23.0558 25.8974 23.4336C26.2751 23.8114 26.7529 24.0003 27.3307 24.0003ZM13.0743 33.3336C12.4008 33.3336 11.8307 33.1003 11.3641 32.6336C10.8974 32.1669 10.6641 31.5968 10.6641 30.9233V13.0773C10.6641 12.4037 10.8974 11.8337 11.3641 11.367C11.8307 10.9003 12.4008 10.667 13.0743 10.667H30.9204C31.5939 10.667 32.164 10.9003 32.6307 11.367C33.0973 11.8337 33.3307 12.4037 33.3307 13.0773V16.7055H31.3307V13.0773C31.3307 12.9576 31.2922 12.8593 31.2153 12.7824C31.1384 12.7054 31.0401 12.667 30.9204 12.667H13.0743C12.9547 12.667 12.8564 12.7054 12.7794 12.7824C12.7025 12.8593 12.664 12.9576 12.664 13.0773V30.9233C12.664 31.043 12.7025 31.1413 12.7794 31.2182C12.8564 31.2952 12.9547 31.3336 13.0743 31.3336H30.9204C31.0401 31.3336 31.1384 31.2952 31.2153 31.2182C31.2922 31.1413 31.3307 31.043 31.3307 30.9233V27.2951H33.3307V30.9233C33.3307 31.5968 33.0973 32.1669 32.6307 32.6336C32.164 33.1003 31.5939 33.3336 30.9204 33.3336H13.0743ZM23.741 28.0003C23.0675 28.0003 22.4974 27.7669 22.0307 27.3003C21.5641 26.8336 21.3307 26.2635 21.3307 25.59V18.4106C21.3307 17.7371 21.5641 17.167 22.0307 16.7003C22.4974 16.2337 23.0675 16.0003 23.741 16.0003H32.2537C32.9272 16.0003 33.4973 16.2337 33.964 16.7003C34.4307 17.167 34.664 17.7371 34.664 18.4106V25.59C34.664 26.2635 34.4307 26.8336 33.964 27.3003C33.4973 27.7669 32.9272 28.0003 32.2537 28.0003H23.741ZM32.2537 26.0003C32.3734 26.0003 32.4717 25.9618 32.5486 25.8849C32.6256 25.808 32.664 25.7097 32.664 25.59V18.4106C32.664 18.2909 32.6256 18.1926 32.5486 18.1157C32.4717 18.0388 32.3734 18.0003 32.2537 18.0003H23.741C23.6213 18.0003 23.523 18.0388 23.4461 18.1157C23.3692 18.1926 23.3307 18.2909 23.3307 18.4106V25.59C23.3307 25.7097 23.3692 25.808 23.4461 25.8849C23.523 25.9618 23.6213 26.0003 23.741 26.0003H32.2537Z" fill="#262626"/>
</g>
</svg>
