<svg width="32" height="32" viewBox="0 0 32 32" fill="none" xmlns="http://www.w3.org/2000/svg">
<circle cx="16" cy="16" r="16" fill="#C1EDD3"/>
<mask id="mask0_1995_36871" style="mask-type:alpha" maskUnits="userSpaceOnUse" x="6" y="6" width="20" height="20">
<rect x="6" y="6" width="20" height="20" fill="#D9D9D9"/>
</mask>
<g mask="url(#mask0_1995_36871)">
<path d="M8.33177 23.6441L11.9856 13.4199L18.556 19.9903L8.33177 23.6441ZM10.3926 21.5833L16.2676 19.5L12.476 15.7083L10.3926 21.5833ZM17.6522 16.5865L16.9535 15.8878L21.524 11.3173C21.9417 10.8996 22.4471 10.6907 23.04 10.6907C23.633 10.6907 24.1383 10.8996 24.556 11.3173L24.9599 11.7211L24.2772 12.4198L23.8734 12.016C23.6469 11.7895 23.3718 11.6762 23.048 11.6762C22.7243 11.6762 22.4492 11.7895 22.2227 12.016L17.6522 16.5865ZM14.6074 13.5416L13.9086 12.843L14.4086 12.343C14.6565 12.0951 14.7805 11.7949 14.7805 11.4423C14.7805 11.0897 14.6565 10.7895 14.4086 10.5416L13.883 10.016L14.5817 9.31729L15.1074 9.84294C15.5518 10.2874 15.774 10.8205 15.774 11.4423C15.774 12.0641 15.5518 12.5972 15.1074 13.0416L14.6074 13.5416ZM16.1298 15.0641L15.4311 14.3654L18.3349 11.4615C18.5614 11.235 18.6747 10.9599 18.6747 10.6362C18.6747 10.3125 18.5614 10.0374 18.3349 9.81087L17.0978 8.57371L17.7965 7.875L19.0336 9.11217C19.4567 9.53525 19.6682 10.0433 19.6682 10.6362C19.6682 11.2292 19.4567 11.7372 19.0336 12.1602L16.1298 15.0641ZM19.1746 18.1089L18.4759 17.4102L19.4727 16.4135C19.9225 15.9637 20.4652 15.7388 21.1009 15.7388C21.7366 15.7388 22.2793 15.9637 22.7291 16.4135L23.7259 17.4102L23.0272 18.1089L22.0304 17.1122C21.7772 16.859 21.4674 16.7324 21.1009 16.7324C20.7344 16.7324 20.4246 16.859 20.1714 17.1122L19.1746 18.1089Z" fill="#185230"/>
</g>
</svg>
