<svg width="44" height="44" viewBox="0 0 44 44" fill="none" xmlns="http://www.w3.org/2000/svg">
<circle cx="22" cy="22" r="22" fill="#FCD800"/>
<mask id="mask0_1995_37074" style="mask-type:alpha" maskUnits="userSpaceOnUse" x="6" y="6" width="32" height="32">
<rect x="6" y="6" width="32" height="32" fill="#D9D9D9"/>
</mask>
<g mask="url(#mask0_1995_37074)">
<path d="M11.3359 28.3843V30.9227C11.3359 31.0253 11.3786 31.1193 11.4641 31.2048C11.5496 31.2903 11.6436 31.333 11.7462 31.333H32.2589C32.3615 31.333 32.4556 31.2903 32.541 31.2048C32.6265 31.1193 32.6692 31.0253 32.6692 30.9227V28.3843H11.3359ZM11.7462 14.692H15.436C15.3249 14.492 15.242 14.2809 15.1873 14.0587C15.1326 13.8365 15.1052 13.6031 15.1052 13.3587C15.1052 12.4271 15.4278 11.6386 16.0731 10.9933C16.7184 10.348 17.5069 10.0254 18.4385 10.0254C18.9975 10.0254 19.5145 10.1706 19.9896 10.4611C20.4647 10.7516 20.8793 11.1123 21.2333 11.5433L21.9769 12.5382L22.7205 11.5433C23.0607 11.0955 23.4725 10.7305 23.956 10.4485C24.4395 10.1664 24.9602 10.0254 25.5181 10.0254C26.4479 10.0254 27.2354 10.348 27.8807 10.9933C28.526 11.6386 28.8486 12.4271 28.8486 13.3587C28.8486 13.6031 28.8234 13.8365 28.773 14.0587C28.7226 14.2809 28.6375 14.492 28.5179 14.692H32.2589C32.9324 14.692 33.5025 14.9254 33.9692 15.392C34.4359 15.8587 34.6692 16.4287 34.6692 17.1023V30.9227C34.6692 31.5962 34.4359 32.1663 33.9692 32.633C33.5025 33.0996 32.9324 33.333 32.2589 33.333H11.7462C11.0727 33.333 10.5026 33.0996 10.0359 32.633C9.56927 32.1663 9.33594 31.5962 9.33594 30.9227V17.1023C9.33594 16.4287 9.56927 15.8587 10.0359 15.392C10.5026 14.9254 11.0727 14.692 11.7462 14.692ZM11.3359 24.9484H32.6692V17.1023C32.6692 16.9997 32.6265 16.9057 32.541 16.8202C32.4556 16.7347 32.3615 16.692 32.2589 16.692H24.9717L27.6948 20.415L26.1 21.5637L21.9769 15.9689L17.8539 21.5637L16.259 20.415L18.9411 16.692H11.7462C11.6436 16.692 11.5496 16.7347 11.4641 16.8202C11.3786 16.9057 11.3359 16.9997 11.3359 17.1023V24.9484ZM18.4385 14.692C18.8163 14.692 19.1329 14.5642 19.3885 14.3087C19.6441 14.0531 19.7718 13.7365 19.7718 13.3587C19.7718 12.9809 19.6441 12.6642 19.3885 12.4087C19.1329 12.1531 18.8163 12.0254 18.4385 12.0254C18.0607 12.0254 17.7441 12.1531 17.4885 12.4087C17.2329 12.6642 17.1052 12.9809 17.1052 13.3587C17.1052 13.7365 17.2329 14.0531 17.4885 14.3087C17.7441 14.5642 18.0607 14.692 18.4385 14.692ZM25.5154 14.692C25.8931 14.692 26.2098 14.5642 26.4654 14.3087C26.7209 14.0531 26.8487 13.7365 26.8487 13.3587C26.8487 12.9809 26.7209 12.6642 26.4654 12.4087C26.2098 12.1531 25.8931 12.0254 25.5154 12.0254C25.1376 12.0254 24.8209 12.1531 24.5654 12.4087C24.3098 12.6642 24.182 12.9809 24.182 13.3587C24.182 13.7365 24.3098 14.0531 24.5654 14.3087C24.8209 14.5642 25.1376 14.692 25.5154 14.692Z" fill="#262626"/>
</g>
</svg>
