<svg width="24" height="24" viewBox="0 0 24 24" fill="none" xmlns="http://www.w3.org/2000/svg">
<mask id="mask0_2006_26478" style="mask-type:alpha" maskUnits="userSpaceOnUse" x="0" y="0" width="24" height="24">
<rect width="24" height="24" fill="#D9D9D9"/>
</mask>
<g mask="url(#mask0_2006_26478)">
<path d="M3.99998 16.7887V18.6925C3.99998 18.7694 4.03202 18.84 4.09613 18.9041C4.16024 18.9682 4.23077 19.0002 4.3077 19.0002H19.6923C19.7692 19.0002 19.8397 18.9682 19.9038 18.9041C19.9679 18.84 20 18.7694 20 18.6925V16.7887H3.99998ZM4.3077 6.51951H7.07505C6.99172 6.36951 6.92953 6.21117 6.8885 6.04451C6.84747 5.87784 6.82695 5.70284 6.82695 5.51951C6.82695 4.82079 7.06893 4.22945 7.5529 3.74548C8.03687 3.26151 8.62821 3.01953 9.32693 3.01953C9.74614 3.01953 10.1339 3.12846 10.4903 3.34631C10.8466 3.56416 11.1575 3.83471 11.4231 4.15798L11.9808 4.90413L12.5385 4.15798C12.7936 3.82208 13.1024 3.54836 13.4651 3.33683C13.8277 3.1253 14.2182 3.01953 14.6366 3.01953C15.334 3.01953 15.9246 3.26151 16.4086 3.74548C16.8925 4.22945 17.1345 4.82079 17.1345 5.51951C17.1345 5.70284 17.1156 5.87784 17.0778 6.04451C17.04 6.21117 16.9762 6.36951 16.8865 6.51951H19.6923C20.1974 6.51951 20.625 6.69451 20.975 7.04451C21.325 7.39449 21.5 7.82205 21.5 8.32718V18.6925C21.5 19.1976 21.325 19.6252 20.975 19.9752C20.625 20.3252 20.1974 20.5002 19.6923 20.5002H4.3077C3.80257 20.5002 3.375 20.3252 3.025 19.9752C2.675 19.6252 2.5 19.1976 2.5 18.6925V8.32718C2.5 7.82205 2.675 7.39449 3.025 7.04451C3.375 6.69451 3.80257 6.51951 4.3077 6.51951ZM3.99998 14.2118H20V8.32718C20 8.25025 19.9679 8.17973 19.9038 8.11563C19.8397 8.05151 19.7692 8.01946 19.6923 8.01946H14.2269L16.2692 10.8118L15.073 11.6733L11.9808 7.47716L8.88845 11.6733L7.69233 10.8118L9.70388 8.01946H4.3077C4.23077 8.01946 4.16024 8.05151 4.09613 8.11563C4.03202 8.17973 3.99998 8.25025 3.99998 8.32718V14.2118ZM9.32693 6.51951C9.61026 6.51951 9.84776 6.42367 10.0394 6.23201C10.2311 6.04034 10.3269 5.80284 10.3269 5.51951C10.3269 5.23617 10.2311 4.99867 10.0394 4.80701C9.84776 4.61534 9.61026 4.51951 9.32693 4.51951C9.04359 4.51951 8.80609 4.61534 8.61443 4.80701C8.42276 4.99867 8.32693 5.23617 8.32693 5.51951C8.32693 5.80284 8.42276 6.04034 8.61443 6.23201C8.80609 6.42367 9.04359 6.51951 9.32693 6.51951ZM14.6346 6.51951C14.9179 6.51951 15.1554 6.42367 15.3471 6.23201C15.5387 6.04034 15.6346 5.80284 15.6346 5.51951C15.6346 5.23617 15.5387 4.99867 15.3471 4.80701C15.1554 4.61534 14.9179 4.51951 14.6346 4.51951C14.3512 4.51951 14.1137 4.61534 13.9221 4.80701C13.7304 4.99867 13.6346 5.23617 13.6346 5.51951C13.6346 5.80284 13.7304 6.04034 13.9221 6.23201C14.1137 6.42367 14.3512 6.51951 14.6346 6.51951Z" fill="#262626"/>
</g>
</svg>
